<?xml version="1.0" encoding="UTF-8" standalone="no"?>
<!-- Generator: Adobe Illustrator 21.1.0, SVG Export Plug-In . SVG Version: 6.00 Build 0)  -->

<svg
   version="1.1"
   id="Layer_1"
   x="0px"
   y="0px"
   viewBox="0 0 638.03997 145.042"
   xml:space="preserve"
   sodipodi:docname="Logo_05.svg"
   width="638.03998"
   height="145.04201"
   inkscape:version="1.2.2 (b0a8486541, 2022-12-01)"
   xmlns:inkscape="http://www.inkscape.org/namespaces/inkscape"
   xmlns:sodipodi="http://sodipodi.sourceforge.net/DTD/sodipodi-0.dtd"
   xmlns="http://www.w3.org/2000/svg"
   xmlns:svg="http://www.w3.org/2000/svg"><defs
   id="defs39" /><sodipodi:namedview
   id="namedview37"
   pagecolor="#505050"
   bordercolor="#ffffff"
   borderopacity="1"
   inkscape:showpageshadow="0"
   inkscape:pageopacity="0"
   inkscape:pagecheckerboard="1"
   inkscape:deskcolor="#505050"
   showgrid="false"
   inkscape:zoom="1.5714642"
   inkscape:cx="319.76548"
   inkscape:cy="64.589446"
   inkscape:window-width="1465"
   inkscape:window-height="1243"
   inkscape:window-x="50"
   inkscape:window-y="82"
   inkscape:window-maximized="0"
   inkscape:current-layer="Layer_1" />
<g
   id="g34"
   transform="translate(-102.015,-233.814)">
	<path
   d="m 189.012,279.92 -17.387,0.006 -0.021,-17.408 -52.234,0.029 v 17.36 l -17.345,0.009 -0.01,52.156 h 17.367 v 17.351 h 52.225 l -0.003,-17.339 17.392,0.018 z m -34.793,52.266 h -17.44 V 314.775 H 119.41 v -17.419 h 17.371 v 17.41 h 17.438 z m 17.404,-17.419 h -17.401 v -17.412 h 17.401 z"
   id="path2" />
	<g
   id="g6">
		<polygon
   points="235.367,378.856 275.996,233.814 258.551,233.814 218.007,378.856 "
   id="polygon4" />
	</g>
	<g
   id="g32">
		<path
   d="m 357.336,262.525 0.014,17.385 17.389,0.04 -0.021,69.482 -17.36,0.019 -0.022,-69.526 -34.814,0.017 0.031,69.497 h -17.405 v -86.913 h 52.188 z"
   id="path8" />
		<g
   id="g16">
			<polygon
   points="548.726,349.444 548.711,332.094 548.655,332.094 496.469,332.023 496.463,349.442 "
   id="polygon10" />
			<polygon
   points="513.897,262.525 513.9,279.93 566.09,279.919 566.075,262.526 "
   id="polygon12" />
			<polygon
   points="496.47,314.765 548.697,314.8 548.711,332.094 566.088,332.091 566.088,297.369 513.907,297.354 513.9,279.93 496.473,279.931 "
   id="polygon14" />
		</g>
		<path
   d="m 583.492,332.083 0.003,-86.945 h 17.4 l -0.014,17.378 34.795,0.021 v 17.373 l -34.787,0.012 0.031,52.161 z m 52.176,0.015 v 17.358 l -34.781,-0.016 v -17.358 z"
   id="path18" />
		<path
   d="m 653.078,349.445 -10e-4,-86.921 17.406,0.009 -0.019,17.369 17.412,0.015 -0.016,-17.417 h 17.393 v 17.418 l -17.374,-0.002 -0.005,17.438 -17.391,0.01 -0.005,52.077 z"
   id="path20" />
		<g
   id="g26">
			<path
   d="m 722.662,349.438 h 17.393 v -69.529 h -17.393 z"
   id="path22" />
			<path
   d="m 740.055,245.139 v 17.378 h -17.383 v -17.378 z"
   id="path24" />
		</g>
		<polygon
   points="392.132,262.525 392.132,349.438 426.899,349.438 426.899,332.06 409.531,332.06 409.513,279.903 426.899,279.903 426.899,262.525 "
   id="polygon28" />
		<polygon
   points="479.053,349.438 479.053,262.525 444.285,262.525 444.285,279.903 461.653,279.903 461.671,332.06 444.285,332.06 444.285,349.438 "
   id="polygon30" />
	</g>
</g>
</svg>
